<?xml version="1.0" encoding="utf-8"?>
<!-- Generator: Adobe Illustrator 24.0.0, SVG Export Plug-In . SVG Version: 6.00 Build 0)  -->
<svg version="1.1" id="Layer_1" xmlns="http://www.w3.org/2000/svg" xmlns:xlink="http://www.w3.org/1999/xlink" x="0px" y="0px"
	 viewBox="0 0 18 18" style="enable-background:new 0 0 18 18;" xml:space="preserve">
<style type="text/css">
	.st0{fill:#FFFFFF;}
	.st1{fill:#264D6C;}
	.st2{fill:#37668B;}
</style>
<g>
	<path class="st0" d="M0.5,9c0-4.7,3.8-8.5,8.5-8.5s8.5,3.8,8.5,8.5s-3.8,8.5-8.5,8.5S0.5,13.7,0.5,9z"/>
	<path class="st1" d="M9,1c4.4,0,8,3.6,8,8s-3.6,8-8,8s-8-3.6-8-8S4.6,1,9,1 M9,0C4,0,0,4,0,9c0,5,4,9,9,9s9-4,9-9S14,0,9,0L9,0z"/>
</g>
<polygon class="st2" points="6.3,12.9 8.1,14.5 13.7,9 8.1,3.5 6.4,5.1 10.2,9 "/>
</svg>
