<?xml version="1.0" encoding="utf-8"?>
<svg version="1.1" id="Layer_1" xmlns="http://www.w3.org/2000/svg" xmlns:xlink="http://www.w3.org/1999/xlink" x="0px" y="0px"
	 width="25px" height="25px" viewBox="0 0 25 25" enable-background="new 0 0 25 25" xml:space="preserve">
<path fill="#FBF9F8" d="M12.5,8.734c0.793-0.001,1.436-0.645,1.435-1.438S13.29,5.86,12.497,5.861c-0.382,0-0.747,0.152-1.015,0.421
	c-0.269,0.27-0.42,0.636-0.42,1.017C11.063,8.092,11.707,8.735,12.5,8.734z M12.497,2.5C9.845,2.496,7.301,3.55,5.429,5.429
	c-1.877,1.876-2.93,4.42-2.929,7.074c0.002,5.523,4.48,9.999,10.003,9.997s9.999-4.48,9.997-10.003S18.02,2.498,12.497,2.5z
	 M18.132,18.154c-3.13,3.119-8.195,3.111-11.314-0.019S3.708,9.94,6.838,6.822s8.195-3.111,11.314,0.019
	c1.498,1.5,2.338,3.535,2.333,5.656C20.483,14.619,19.637,16.655,18.132,18.154z M18.122,10.204l-0.55,0.119
	c-0.002,0.001-0.004,0.003-0.006,0.003l-0.041,0.008l-0.094,0.02v-0.003l-2.703,0.509c-0.094,0.021-0.179,0.036-0.254,0.047
	c-0.296,0.05-0.443,0.076-0.425,0.498c0.013,0.308,0.05,0.675,0.099,1.059c0.057,0.451,0.132,0.929,0.21,1.367
	c0.05,0.288,0.098,0.519,0.163,0.74c0.065,0.221,0.129,0.447,0.226,0.719l0.994,2.75l0.187,0.472l-1.544,0.574l-0.172-0.487
	c0-0.001-0.001-0.001-0.001-0.002L12.75,14.58l-0.163-0.298l-0.163,0.29h0.009l-1.455,4.022l-0.166,0.47l-1.543-0.573l0.179-0.453
	l1.015-2.812c0.081-0.212,0.144-0.429,0.19-0.651c0.041-0.225,0.07-0.452,0.088-0.68c0.039-0.412,0.067-0.857,0.088-1.285
	c0.021-0.428,0.036-0.843,0.047-1.186c0.015-0.428-0.101-0.456-0.444-0.537l-0.072-0.016l-2.929-0.552
	c-0.011-0.002-0.02-0.01-0.031-0.012l-0.529-0.115l0.399-1.56l0.596,0.116v0.003l3.009,0.565C11,9.327,11.122,9.342,11.251,9.357
	c0.387,0.053,0.777,0.082,1.168,0.086c0.487-0.009,0.972-0.046,1.455-0.109c0.146-0.016,0.285-0.034,0.423-0.047l2.969-0.556
	c0.003-0.001,0.006,0.001,0.009,0l0.449-0.087L18.122,10.204z"/>
</svg>
