<?xml version="1.0" encoding="utf-8"?>
<svg version="1.1" id="Layer_1" xmlns="http://www.w3.org/2000/svg" xmlns:xlink="http://www.w3.org/1999/xlink" x="0px" y="0px"
	 width="25px" height="25px" viewBox="0 0 25 25" enable-background="new 0 0 25 25" xml:space="preserve">
<path fill="#FBF9F8" d="M19.793,21.207l-4.723-4.722c-1.21,0.915-2.717,1.459-4.348,1.459c-3.982,0-7.222-3.24-7.222-7.222
	C3.5,6.74,6.74,3.5,10.722,3.5c3.982,0,7.222,3.24,7.222,7.222c0,1.631-0.544,3.138-1.459,4.348l4.722,4.723L19.793,21.207z
	 M10.722,5.5C7.843,5.5,5.5,7.843,5.5,10.722s2.343,5.222,5.222,5.222s5.222-2.343,5.222-5.222S13.602,5.5,10.722,5.5z"/>
</svg>
